<svg width="91" height="85" viewBox="0 0 91 85" fill="none" xmlns="http://www.w3.org/2000/svg">
<path d="M90.6667 0V45.6432C89.8403 44.8168 88.9549 44.079 88.0104 43.4297C87.066 42.7804 86.0625 42.1901 85 41.6589V22.6667H5.66667V68H53.8333L48.1667 73.6667H0V0H90.6667ZM85 17V5.66667H5.66667V17H85ZM62.4661 59.2344C62.4661 57.2865 62.8351 55.4714 63.5729 53.7891C64.3108 52.1068 65.3142 50.6458 66.5833 49.4062C67.8524 48.1667 69.3281 47.178 71.0104 46.4401C72.6927 45.7023 74.5226 45.3481 76.5 45.3776C78.4774 45.3776 80.3221 45.7465 82.0339 46.4844C83.7457 47.2222 85.2361 48.2257 86.5052 49.4948C87.7743 50.7639 88.7778 52.2691 89.5156 54.0104C90.2535 55.7517 90.6224 57.5964 90.6224 59.5443C90.6224 61.4627 90.2682 63.263 89.5599 64.9453C88.8516 66.6276 87.8628 68.1181 86.5938 69.4167C85.3247 70.7153 83.8637 71.7188 82.2109 72.4271C80.5582 73.1354 78.7431 73.5043 76.7656 73.5339C75.349 73.5339 73.9618 73.342 72.6042 72.9583C71.2465 72.5747 69.9627 71.9991 68.7526 71.2318L59.8542 80.1302C59.1753 80.809 58.5113 81.4878 57.862 82.1667C57.2127 82.8455 56.5339 83.5096 55.8255 84.1589C55.5304 84.4245 55.25 84.6311 54.9844 84.7786C54.7188 84.9262 54.3646 85 53.9219 85C53.1545 85 52.4757 84.7049 51.8854 84.1146C51.2951 83.5243 51 82.8455 51 82.0781C51 81.6649 51.0738 81.3255 51.2214 81.0599C51.3689 80.7943 51.5755 80.4991 51.8411 80.1745C52.4609 79.4661 53.1102 78.7873 53.7891 78.138C54.4679 77.4887 55.1615 76.8247 55.8698 76.1458C57.375 74.6406 58.8507 73.1502 60.2969 71.6745C61.7431 70.1988 63.2335 68.7083 64.7682 67.2031C64.0304 65.9931 63.4696 64.724 63.0859 63.3958C62.7023 62.0677 62.4957 60.6806 62.4661 59.2344ZM68.1328 59.7656C68.1328 60.8872 68.3394 61.9349 68.7526 62.9089C69.1658 63.8828 69.7413 64.7387 70.4792 65.4766C71.217 66.2144 72.0729 66.7899 73.0469 67.2031C74.0208 67.6163 75.0833 67.8229 76.2344 67.8229C77.3854 67.8229 78.4774 67.6016 79.5104 67.1589C80.5434 66.7161 81.4878 66.0816 82.3438 65.2552C83.1997 64.4288 83.849 63.5139 84.2917 62.5104C84.7344 61.5069 84.9852 60.4149 85.0443 59.2344C85.0443 58.1719 84.8229 57.1536 84.3802 56.1797C83.9375 55.2057 83.3177 54.3203 82.5208 53.5234C81.724 52.7266 80.8385 52.1068 79.8646 51.6641C78.8906 51.2214 77.8576 50.9852 76.7656 50.9557C75.6146 50.9557 74.5226 51.1918 73.4896 51.6641C72.4566 52.1363 71.5417 52.8003 70.7448 53.6562C69.9479 54.5122 69.3134 55.4418 68.8411 56.4453C68.3689 57.4488 68.1328 58.5556 68.1328 59.7656Z" fill="white"/>
</svg>
