<svg width="1920" height="931" viewBox="0 0 1920 931" fill="none" xmlns="http://www.w3.org/2000/svg">
<path d="M0 931H390C390 931 394.355 882.934 374.5 866C354.399 848.856 333.105 878.305 307 861.5C266.446 835.395 260.956 752.354 307 738C321.354 733.525 332.877 746.168 345.5 738C365.008 725.377 365.008 691.123 345.5 678.5C332.877 670.332 321.384 682.878 307 678.5C259.739 664.116 350.585 575.257 307 552C283.743 539.59 258.808 569.946 239.5 552C218.726 532.692 214.089 491.971 239.5 479.375C252.096 473.131 262.912 485.636 275.5 479.375C300.806 466.787 300.806 419.588 275.5 407C262.912 400.739 252.126 413.184 239.5 407C213.722 394.374 263.757 348.846 239.5 333.5C224.154 323.791 209.986 339.922 193 333.5C148.069 316.514 148.069 227.486 193 210.5C209.986 204.078 225.102 221.566 239.5 210.5C258.233 196.102 223.731 167.594 239.5 150C257.094 130.37 286.128 166.101 307 150C334.056 129.128 281.709 85.4786 307 62.5C329.979 41.6223 360.143 75.1195 379 54C393.334 37.9466 390 0 390 0H0V931Z" fill="url(#paint0_linear_132_851)"/>
<path d="M1920.4 931H1530.4C1530.4 931 1526.05 882.934 1545.9 866C1566.01 848.856 1587.3 878.305 1613.4 861.5C1653.96 835.395 1659.45 752.354 1613.4 738C1599.05 733.525 1587.53 746.168 1574.9 738C1555.4 725.377 1555.4 691.123 1574.9 678.5C1587.53 670.332 1599.02 682.878 1613.4 678.5C1660.67 664.116 1569.82 575.257 1613.4 552C1636.66 539.59 1661.6 569.946 1680.9 552C1701.68 532.692 1706.32 491.971 1680.9 479.375C1668.31 473.131 1657.49 485.636 1644.9 479.375C1619.6 466.787 1619.6 419.588 1644.9 407C1657.49 400.739 1668.28 413.184 1680.9 407C1706.68 394.374 1656.65 348.846 1680.9 333.5C1696.25 323.791 1710.42 339.922 1727.4 333.5C1772.34 316.514 1772.34 227.486 1727.4 210.5C1710.42 204.078 1695.3 221.566 1680.9 210.5C1662.17 196.102 1696.67 167.594 1680.9 150C1663.31 130.37 1634.28 166.101 1613.4 150C1586.35 129.128 1638.7 85.4786 1613.4 62.5C1590.43 41.6223 1560.26 75.1195 1541.4 54C1527.07 37.9466 1530.4 0 1530.4 0H1920.4V931Z" fill="url(#paint1_linear_132_851)"/>
<defs>
<linearGradient id="paint0_linear_132_851" x1="390" y1="422" x2="-1.39779e-05" y2="422" gradientUnits="userSpaceOnUse">
<stop stop-color="#133881"/>
<stop offset="1" stop-color="#0F2247"/>
</linearGradient>
<linearGradient id="paint1_linear_132_851" x1="1530.4" y1="422" x2="1920.4" y2="422" gradientUnits="userSpaceOnUse">
<stop stop-color="#133881"/>
<stop offset="1" stop-color="#0F2247"/>
</linearGradient>
</defs>
</svg>
