<svg width="430" height="2972" viewBox="0 0 430 2972" fill="none" xmlns="http://www.w3.org/2000/svg">
<path d="M24.9409 2870.09C17.5263 2863.47 0 2865.01 0 2865.01L0 50.3413C0 50.3413 41.4121 67.3232 53.75 50.3413C62.7139 38.0034 44.7312 23.5879 53.75 11.29C66.0479 -5.47925 90.9635 -1.94946 107 11.29C126.424 27.3264 82.2361 71.1829 107 75.79C111.607 76.6472 115.497 78.9033 119 75.79C122.94 72.2874 117.004 67.1697 119 62.29C123.88 50.3623 147.12 50.3623 152 62.29C153.996 67.1697 147.913 72.4597 152 75.79C155.33 78.5037 158.862 76.9424 163 75.79C177.86 71.6519 152.432 47.5269 163 36.29C174.237 24.3418 196.611 50.3843 205 36.29C209.994 27.9006 199.962 19.6528 205 11.29C213.363 -2.59229 235.394 -0.512695 246.5 11.29C256.951 22.3965 234.769 40.5969 246.5 50.3413C256.244 58.4353 271.293 60.4419 278.938 50.3413C284.724 42.6963 273.593 33.7498 278.938 25.79C286.897 13.936 303.974 17.3618 315.5 25.79C331.262 37.3157 296.195 72.8582 315.5 75.79C318.432 76.2354 320.653 77.4749 323.094 75.79C326.629 73.3496 320.89 68.4775 323.094 64.79C326.781 58.6199 337.813 58.6199 341.5 64.79C343.704 68.4775 339.207 72.1577 341.5 75.79C345.654 82.3694 352.732 69.3381 360.5 69.79C367.071 70.1721 369.995 77.8401 376.25 75.79C385.694 72.6946 371.997 59.3237 376.25 50.3413C385.232 31.3696 430 50.3413 430 50.3413L430 2865.01C430 2865.01 407.8 2863 399.979 2872.17C396.076 2876.75 397.4 2881.45 398.819 2886.5C400.278 2891.69 401.837 2897.23 397.9 2903.35C385.843 2922.08 347.489 2924.61 340.859 2903.35C339.912 2900.31 340.626 2897.54 341.313 2894.88C342.126 2891.73 342.903 2888.72 340.859 2885.56C335.029 2876.55 319.208 2876.55 313.378 2885.56C311.329 2888.73 312.102 2891.74 312.913 2894.9C313.594 2897.56 314.302 2900.31 313.378 2903.35C310.057 2914.26 298.143 2909.23 285.713 2903.99C273.276 2898.74 260.324 2893.28 254.952 2903.35C252.223 2908.46 253.971 2913.75 255.658 2918.85C257.514 2924.47 259.294 2929.85 254.952 2934.52C246.034 2944.12 227.226 2946.26 221.408 2934.52C219.967 2931.62 220.689 2928.91 221.411 2926.21C222.133 2923.51 222.855 2920.8 221.408 2917.9C215.595 2906.21 193.795 2906.21 187.981 2917.9C186.532 2920.81 187.251 2923.51 187.971 2926.22C188.688 2928.91 189.406 2931.61 187.981 2934.52C185.056 2940.49 178.309 2937.66 171.415 2934.76C164.563 2931.88 157.566 2928.94 154.033 2934.52C151.662 2938.27 152.628 2941.87 153.626 2945.58C154.516 2948.9 155.431 2952.3 154.033 2956C146.188 2976.75 105.069 2976.75 97.2234 2956C95.8499 2952.37 96.8446 2948.92 97.8011 2945.6C98.91 2941.76 99.9677 2938.09 97.2234 2934.52C93.8373 2930.12 88.7616 2932.09 83.522 2934.12C78.4715 2936.08 73.2687 2938.1 69.2803 2934.52C64.6422 2930.37 66.6958 2924.83 68.8127 2919.12C70.8338 2913.66 72.9125 2908.06 69.2803 2903.35C64.4285 2897.06 56.9116 2900.06 49.2883 2903.1C41.7651 2906.1 34.1383 2909.15 28.8668 2903.35C24.01 2898 25.5243 2891.81 26.9775 2885.88C28.4096 2880.02 29.7823 2874.42 24.9409 2870.09Z" fill="#133881"/>
</svg>
