<svg width="308" height="236" viewBox="0 0 308 236" fill="none" xmlns="http://www.w3.org/2000/svg">
<rect x="3" y="3" width="302" height="230" rx="27" stroke="white" stroke-width="6"/>
<path d="M167.174 88.7385L143.592 152H131.606L155.188 88.7385H167.174Z" fill="white"/>
<path d="M94.0924 102.297L73.0196 114.715L94.0924 127.221V136.956L63.5867 118.091V111.34L94.0924 92.5609V102.297ZM125.117 82.7385C121.108 88.2483 118.05 94.335 115.944 100.999C113.867 107.662 112.829 114.557 112.829 121.682C112.829 128.778 113.91 135.644 116.074 142.279C118.237 148.914 121.223 154.827 125.031 160.02H114.949C110.708 155.116 107.477 149.39 105.256 142.841C103.035 136.293 101.924 129.225 101.924 121.639C101.924 114.052 103.035 106.927 105.256 100.263C107.506 93.5994 110.737 87.7579 114.949 82.7385H125.117ZM205.817 82.7385C210.086 87.8444 213.317 93.7436 215.509 100.436C217.731 107.1 218.841 114.211 218.841 121.769C218.841 129.326 217.716 136.38 215.466 142.928C213.245 149.476 210.029 155.173 205.817 160.02H195.692C199.615 154.654 202.629 148.683 204.735 142.106C206.87 135.5 207.937 128.663 207.937 121.595C207.937 114.528 206.884 107.662 204.778 100.999C202.701 94.335 199.644 88.2483 195.605 82.7385H205.817ZM257.136 111.34V118.091L226.63 136.956V127.221L247.833 114.715L226.63 102.297V92.5609L257.136 111.34Z" fill="white"/>
<path d="M155.64 133.653V122.836H178.876V133.653H155.64Z" fill="white"/>
<rect x="180" y="142" width="10" height="10" fill="white"/>
</svg>
