<svg width="95" height="85" viewBox="0 0 95 85" fill="none" xmlns="http://www.w3.org/2000/svg">
<path d="M0 18.8889V9.44444C0 6.84722 0.925556 4.62463 2.77667 2.77667C4.62778 0.928704 6.85037 0.00314815 9.44444 0H85C87.5972 0 89.8214 0.925556 91.6725 2.77667C93.5236 4.62778 94.4476 6.85037 94.4444 9.44444V18.8889H85V9.44444H9.44444V18.8889H0ZM28.3333 85V75.5556H9.44444C6.84722 75.5556 4.62463 74.6316 2.77667 72.7836C0.928704 70.9357 0.00314815 68.7115 0 66.1111V56.6667H9.44444V66.1111H85V56.6667H94.4444V66.1111C94.4444 68.7083 93.5205 70.9325 91.6725 72.7836C89.8245 74.6347 87.6004 75.5587 85 75.5556H66.1111V85H28.3333ZM13.2222 37.7778L25.5 25.5L18.8889 18.8889L0 37.7778L18.8889 56.6667L25.5 50.0556L13.2222 37.7778ZM81.2222 37.7778L68.9444 50.0556L75.5555 56.6667L94.4444 37.7778L75.5555 18.8889L68.9444 25.5L81.2222 37.7778Z" fill="white"/>
</svg>
