<svg width="308" height="236" viewBox="0 0 308 236" fill="none" xmlns="http://www.w3.org/2000/svg">
<rect x="3" y="3" width="302" height="230" rx="27" stroke="white" stroke-width="6"/>
<path d="M76.0924 109.297L55.0196 121.715L76.0924 134.221V143.956L45.5867 125.091V118.34L76.0924 99.5609V109.297ZM107.117 89.7385C103.108 95.2483 100.05 101.335 97.944 107.999C95.867 114.662 94.8285 121.557 94.8285 128.682C94.8285 135.778 95.9103 142.644 98.0738 149.279C100.237 155.914 103.223 161.827 107.031 167.02H96.9488C92.7083 162.116 89.4774 156.39 87.2562 149.841C85.035 143.293 83.9243 136.225 83.9243 128.639C83.9243 121.052 85.035 113.927 87.2562 107.263C89.5062 100.599 92.7371 94.7579 96.9488 89.7385H107.117ZM209.712 89.7385C213.981 94.8444 217.212 100.744 219.404 107.436C221.626 114.1 222.736 121.211 222.736 128.769C222.736 136.326 221.611 143.38 219.361 149.928C217.14 156.476 213.923 162.173 209.712 167.02H199.586C203.51 161.654 206.524 155.683 208.63 149.106C210.765 142.5 211.832 135.663 211.832 128.595C211.832 121.528 210.779 114.662 208.673 107.999C206.596 101.335 203.538 95.2483 199.5 89.7385H209.712ZM261.031 118.34V125.091L230.525 143.956V134.221L251.727 121.715L230.525 109.297V99.5609L261.031 118.34Z" fill="white"/>
<path d="M129.77 158H118.692L142.275 94.7385H153.352L129.77 158ZM165.684 158H154.607L178.189 94.7385H189.267L165.684 158Z" fill="white"/>
</svg>
