<svg width="85" height="85" viewBox="0 0 85 85" fill="none" xmlns="http://www.w3.org/2000/svg">
<path d="M37.1875 10.6248C33.1341 10.6248 29.3516 11.7564 26.1269 13.7273C25.794 11.9444 25.1865 10.2239 24.3259 8.62729C28.3703 6.38913 32.9287 5.24512 37.5507 5.30832C42.1726 5.37152 46.6981 6.63975 50.6797 8.98765C54.6614 11.3356 57.9615 14.6818 60.2537 18.6958C62.546 22.7098 63.7511 27.2524 63.75 31.8748H77.0366C79.1491 31.8762 81.1746 32.7164 82.6679 34.2107C84.1612 35.7049 85 37.731 85 39.8435V71.7185C85 73.832 84.1604 75.8589 82.666 77.3533C81.1716 78.8477 79.1447 79.6873 77.0312 79.6873H45.1562C43.0428 79.6873 41.0159 78.8477 39.5215 77.3533C38.0271 75.8589 37.1875 73.832 37.1875 71.7185V58.4373C33.4923 58.4393 29.8373 57.6703 26.4562 56.1795C26.5271 54.3768 26.5625 52.4731 26.5625 50.4685V50.2826C29.6863 52.0889 33.3147 53.1248 37.1875 53.1248V39.8435C37.1875 37.7301 38.0271 35.7032 39.5215 34.2088C41.0159 32.7143 43.0428 31.8748 45.1562 31.8748H58.4375C58.4375 26.2389 56.1987 20.8339 52.2135 16.8488C48.2284 12.8636 42.8233 10.6248 37.1875 10.6248ZM63.2187 37.1873C62.1712 42.2891 59.6499 46.9715 55.9671 50.6544C52.2843 54.3372 47.6019 56.8585 42.5 57.906V71.7185C42.5 72.423 42.7799 73.0986 43.278 73.5968C43.7761 74.0949 44.4518 74.3748 45.1562 74.3748H77.0312C77.7357 74.3748 78.4114 74.0949 78.9095 73.5968C79.4076 73.0986 79.6875 72.423 79.6875 71.7185V39.8435C79.6875 39.1391 79.4076 38.4634 78.9095 37.9653C78.4114 37.4671 77.7357 37.1873 77.0312 37.1873H63.2187ZM57.7681 37.1873H45.1562C44.4518 37.1873 43.7761 37.4671 43.278 37.9653C42.7799 38.4634 42.5 39.1391 42.5 39.8435V52.4554C46.1745 51.5017 49.5274 49.5834 52.2118 46.8991C54.8961 44.2147 56.8144 40.8618 57.7681 37.1873ZM13.7116 0.663849C14.1525 1.04955 14.4536 1.5702 14.5679 2.14477C14.6823 2.71934 14.6035 3.3156 14.3437 3.84072C14.2966 3.99566 14.2733 4.15689 14.2747 4.31885C14.2747 4.65354 14.3597 5.29104 15.1619 6.08791C15.5497 6.47572 15.8472 6.75198 16.1713 7.05479C16.4369 7.29916 16.7184 7.55416 17.0744 7.90479C17.765 8.56354 18.4928 9.33916 19.1462 10.3113C20.5009 12.346 21.25 14.8907 21.25 18.5935C21.25 23.1251 19.5712 26.9873 16.9522 29.3567L17.2922 29.7498C18.7797 31.5773 19.6456 33.9467 20.1875 36.2842C21.25 40.906 21.25 46.4629 21.25 50.3357V50.4685C21.25 65.2745 19.2366 73.6735 17.0212 78.476C15.9056 80.8932 14.7209 82.4338 13.6956 83.4007C13.2782 83.8 12.8186 84.1527 12.325 84.4526C12.0987 84.5886 11.8625 84.7076 11.6184 84.8085C11.6184 84.8085 11.0181 84.9998 10.625 84.9998C10.2319 84.9998 9.63156 84.8085 9.63156 84.8085C9.38752 84.7076 9.15135 84.5886 8.925 84.4526C8.43135 84.1527 7.97178 83.8 7.55437 83.4007C6.52906 82.4285 5.34438 80.8932 4.22875 78.476C2.01344 73.6735 0 65.2745 0 50.4685V50.3357C0 46.4576 2.37487e-07 40.906 1.0625 36.2842C1.60438 33.9467 2.47031 31.5773 3.95781 29.7498C4.06406 29.6152 4.1774 29.4842 4.29781 29.3567C1.67875 26.9873 0 23.1251 0 18.5935C0 16.8617 0.462188 14.7951 1.09969 12.8879C1.73719 10.9807 2.62969 8.99916 3.66031 7.40541C4.8875 5.33354 6.61406 3.59635 7.95281 2.4276C8.68947 1.78534 9.45528 1.1773 10.2478 0.605412L10.4072 0.499162L10.455 0.461974L10.4709 0.45135L10.4816 0.446038C10.9687 0.12132 11.5495 -0.0333682 12.1336 0.00602113C12.7177 0.0454105 13.2724 0.27667 13.7116 0.663849ZM10.625 26.5623C12.6809 26.557 15.9375 24.2779 15.9375 18.5935C15.9375 15.6557 15.3584 14.216 14.7209 13.2598C14.3323 12.7021 13.8853 12.1874 13.3875 11.7245L12.7287 11.1082C12.2984 10.7045 11.7937 10.237 11.4006 9.84916C10.8211 9.27285 10.3225 8.62054 9.91844 7.9101C9.24245 8.62133 8.64736 9.40528 8.14406 10.2476C7.40031 11.3898 6.67781 12.957 6.14125 14.572C5.58875 16.2188 5.3125 17.6745 5.3125 18.5935C5.3125 24.2885 8.57969 26.5623 10.625 26.5623ZM8.075 33.1073C7.32062 34.0264 6.69375 35.4926 6.23688 37.4795C5.32312 41.4532 5.3125 46.447 5.3125 50.4685C5.3125 64.8813 7.28344 72.4198 9.0525 76.2501C9.63688 77.5092 10.1841 78.3485 10.625 78.9064C11.2506 78.0851 11.7784 77.1936 12.1975 76.2501C13.9666 72.4198 15.9375 64.8813 15.9375 50.4685C15.9375 46.447 15.9269 41.4532 15.0078 37.4795C14.5509 35.4926 13.9241 34.0264 13.175 33.1073C12.8826 32.7096 12.4974 32.3894 12.053 32.1745C11.6085 31.9597 11.1183 31.8568 10.625 31.8748H10.6144C10.1228 31.8586 9.63474 31.9623 9.1923 32.1771C8.74985 32.3918 8.36637 32.7111 8.075 33.1073Z" fill="white"/>
</svg>
