<svg width="37" height="63" viewBox="0 0 37 63" fill="none" xmlns="http://www.w3.org/2000/svg">
<path d="M13.7477 43.1052C13.7477 38.6289 14.1584 35.4104 14.9799 33.4496C15.8014 31.4889 17.5405 29.3469 20.1972 27.0236C22.5168 25.0342 24.2853 23.3078 25.5028 21.8444C26.7203 20.381 27.3279 18.7088 27.3257 16.8276C27.3257 14.5618 26.5483 12.6829 24.9937 11.1908C23.439 9.69867 21.2744 8.95262 18.5 8.95262C15.6147 8.95262 13.423 9.8092 11.9249 11.5224C10.4268 13.2355 9.36541 14.9763 8.74082 16.7447L0 13.0974C1.18807 9.56051 3.36621 6.49341 6.5344 3.89605C9.7026 1.29868 13.6911 0 18.5 0C24.4404 0 29.0094 1.617 32.207 4.85099C35.4046 8.08499 37.0023 11.9667 37 16.496C37 19.2592 36.3924 21.6222 35.1772 23.5852C33.9619 25.5481 32.052 27.7719 29.4472 30.2565C26.6751 32.8539 24.9925 34.8301 24.3996 36.1852C23.8067 37.5402 23.5091 39.8469 23.5069 43.1052H13.7477ZM18.5 62.9999C16.633 62.9999 15.0353 62.3511 13.707 61.0535C12.3786 59.756 11.7133 58.1942 11.711 56.3683C11.7087 54.5424 12.3741 52.9818 13.707 51.6865C15.0399 50.3911 16.6376 49.7412 18.5 49.7368C20.3624 49.7324 21.9613 50.3822 23.2964 51.6865C24.6316 52.9907 25.2958 54.5513 25.289 56.3683C25.2822 58.1854 24.618 59.7471 23.2964 61.0535C21.9748 62.36 20.376 63.0088 18.5 62.9999Z" fill="white"/>
</svg>
