<svg width="108" height="64" viewBox="0 0 108 64" fill="none" xmlns="http://www.w3.org/2000/svg">
<path d="M82.348 31.9998C82.348 40.7812 78.3315 48.6275 72.0298 53.813L73.6641 57.2845C81.224 51.43 86.0883 42.2811 86.0883 31.9998C86.0883 21.8216 81.1148 12.6305 73.4992 6.73748L71.8713 10.1953C78.2335 15.4135 82.348 23.298 82.348 31.9998Z" fill="white"/>
<path d="M57.0604 16.4968H52.0734L38.968 44.3339H43.955L57.0604 16.4968Z" fill="white"/>
<path d="M51.1847 32.1552L48.8445 37.1261H61.7455V32.1552H51.1847Z" fill="white"/>
<path d="M68.2286 39.363H63.2416V44.3339H68.2286V39.363Z" fill="white"/>
<path fill-rule="evenodd" clip-rule="evenodd" d="M54.5143 51.5727V48.0011C46.0312 48.3356 37.2208 47.493 29.354 45.8585C26.9844 41.747 25.6208 37.0112 25.6208 31.9998C25.6208 16.4374 38.2355 3.81185 53.8286 3.72823V0C43.556 0.0486654 34.4236 4.90646 28.5812 12.4307C12.8357 16.1441 0 22.7808 0 30.4266C0 38.1469 10.6963 44.9009 26.6694 48.5924C32.6554 57.9737 43.4646 63.714 54.5143 63.7667V60.267C45.523 60.4312 37.329 56.2332 31.9823 49.6715C38.8488 50.8846 46.4776 51.564 54.5143 51.5727ZM3.42857 31.055C3.42857 36.4011 12.3698 41.5354 24.5835 44.7404C22.8594 40.9227 21.8805 36.641 21.8805 31.9998C21.8805 26.3523 23.3482 21.0465 25.9242 16.4407C13.5128 19.406 3.42857 25.0164 3.42857 31.055Z" fill="white"/>
<path d="M108 33.7086V30.5462L95.9241 23.273V27.2714L103.794 32.0117L95.9241 36.7521V40.9818L108 33.7086Z" fill="white"/>
</svg>
