<svg width="1920" height="567" viewBox="0 0 1920 567" fill="none" xmlns="http://www.w3.org/2000/svg">
<path fill-rule="evenodd" clip-rule="evenodd" d="M1920 567V15.5C1920 15.5 1838.8 -17.3678 1813 15.5C1803.18 28.0123 1809.16 43.6586 1814.88 58.6313C1820.96 74.5351 1826.75 89.679 1813 99.5C1793.93 113.119 1769.9 115.727 1753 99.5C1744.24 91.0908 1748.77 79.5294 1753.26 68.0687C1757.79 56.4923 1762.28 45.0187 1753 37C1737.04 23.2129 1718.56 29.1177 1699 37C1650.46 56.5598 1652.12 147.737 1699 171C1709.79 176.354 1721.56 172.245 1732.62 168.384C1745.41 163.92 1757.24 159.789 1765.5 171C1776.85 186.405 1773.89 202.8 1765.5 220C1756.88 237.671 1736.67 229.147 1716.14 220.49C1695.68 211.865 1674.92 203.107 1665 220C1653.34 239.87 1655.51 258.005 1665 279C1675.77 302.824 1699.93 293.162 1725.99 282.74C1750.72 272.848 1777.17 262.27 1795.5 279C1836.75 316.644 1847.44 401.479 1795.5 422C1774.98 430.108 1757.77 433.593 1739 422C1723.83 412.631 1731.64 394.027 1739.37 375.642C1747.12 357.186 1754.78 338.951 1739 330.5C1722.13 321.466 1703.46 316.9 1690 330.5C1683.23 337.342 1686.34 345.892 1689.51 354.612C1692.58 363.048 1695.71 371.642 1690 379C1682.47 388.701 1670.84 384.059 1659.06 379.355C1647.42 374.709 1635.63 370.003 1627.5 379C1612.7 395.368 1612.7 419.132 1627.5 435.5C1635.64 444.507 1647.38 439.836 1658.99 435.214C1670.73 430.543 1682.34 425.922 1690 435.5C1702.2 450.747 1698.4 467.871 1690 485.5C1678.57 509.512 1655.04 502.376 1628.74 494.396C1614.48 490.072 1599.41 485.5 1585 485.5C1573.82 485.5 1562.48 488.85 1551.76 492.019C1531.98 497.867 1514.29 503.096 1503.5 485.5C1493.29 468.856 1493.29 452.144 1503.5 435.5C1511.91 421.789 1527.28 428.048 1543.13 434.505C1558.64 440.825 1574.62 447.334 1585 435.5C1603.41 414.51 1598.5 388.444 1585 364C1572.74 341.801 1547.2 352.493 1521.27 363.344C1495.49 374.133 1469.34 385.08 1455.5 364C1437.29 336.249 1433.43 303.796 1455.5 279C1468.78 264.078 1485.55 269.696 1503.45 275.692C1518.97 280.89 1535.33 286.372 1551 279C1622.73 245.253 1621.56 112.147 1551 76C1514.85 57.4814 1471.07 43.2833 1447 76C1436.54 90.2162 1439.88 104.007 1443.51 119.013C1446.03 129.41 1451.8 140.261 1447 152.5C1438.26 174.78 1410.37 159.818 1387 165C1364.48 169.994 1348.71 191.261 1329.5 178.5C1312.14 166.969 1335.64 132.369 1315.5 127C1298.07 122.354 1294.94 154.317 1277 152.5C1251.89 149.958 1277.51 98.4955 1253 92.5C1228.3 86.4588 1204.1 135.5 1204.1 135.5C1204.1 135.5 1175.55 177.557 1147 186C1107.78 197.599 1053.58 192.352 1048 151.834C1043.76 121.033 1091.35 117.518 1093.5 86.5C1095.13 63.03 1090.67 46.1042 1074 29.5C1038.54 -5.82468 985.768 9.84089 969 57C960.116 81.9845 976.206 130.11 961 151.834C945.556 173.899 904.632 146.62 894.976 171.762C889.454 186.142 886.595 201.868 899 211C908.283 217.834 917.753 216.053 928.484 212.39C938.27 209.05 948.442 205.577 958 211C993.326 231.041 993.326 294.959 958 315C948.586 320.341 937.874 316.472 927.809 312.836C916.449 308.733 907.546 307.633 899 315C884.954 327.108 903.856 351.413 921.615 356.756C925.68 357.98 929.389 356.822 932.947 355.712C936.89 354.482 940.648 353.309 944.5 355.5C971.657 370.945 965.845 412.687 944.5 435.5C921.687 459.881 870.543 466.831 859 435.5C854.747 423.957 853.206 414.852 859 404C864.42 393.848 876.903 399.13 889.161 404.318C901.444 409.516 913.501 414.618 918 404C920.969 396.993 920.158 391.905 919.07 385.085C918.904 384.041 918.731 382.956 918.564 381.818C910.016 323.497 804.986 335.301 788.768 382.619L788.766 382.623C783.765 397.215 779.03 411.03 790 422C795.819 427.819 805.053 424.087 813.55 420.653C822.392 417.08 830.435 413.83 833 422C834.579 427.03 834.13 430.351 833 435.5C827.851 458.959 791.433 448.898 771.5 435.5C756.723 425.568 765.168 405.37 773.129 386.33C781.145 367.158 788.67 349.16 771.5 344C761.215 340.909 753.763 339.525 744 344C733.346 348.883 738.867 361.913 744.289 374.708C749.707 387.496 755.026 400.049 744 404C736.096 406.832 729.896 407.975 722.5 404C714.932 399.932 717.475 392.613 720.314 384.444C722.636 377.76 725.156 370.508 722.5 364C708.037 328.567 638.963 328.567 624.5 364C618.597 378.463 615.631 391.141 624.5 404C630.903 413.284 642.629 408.388 654.125 403.588C665.716 398.748 677.072 394.006 682.5 404C688.371 414.81 686.646 423.918 682.5 435.5C670.918 467.856 609.159 466.583 594.5 435.5C591.272 428.654 593.573 421.636 595.769 414.938C598.276 407.295 600.645 400.071 594.5 394C583.11 382.747 562.53 380.778 553.5 394C550.487 398.412 552.184 403.275 553.845 408.033C555.583 413.014 557.282 417.881 553.5 422C545.445 430.774 533.542 427.544 523 422C512.605 416.534 516.715 405.96 521.151 394.547C525.271 383.949 529.672 372.627 523 364C505.082 340.831 469.43 344.034 448 364C436.667 374.559 443.11 390.437 449.308 405.711C455.689 421.438 461.81 436.523 448 444.5C432.275 453.583 413.427 458.194 401.5 444.5C396.162 438.371 398.519 431.39 400.937 424.23C403.224 417.458 405.566 410.525 401.5 404C394.597 392.922 382.749 397.55 370.223 402.443C358.388 407.065 345.948 411.924 336.5 404C324.99 394.346 331.116 379.309 337.125 364.562C343.221 349.6 349.195 334.936 336.5 326.5C328.199 320.984 319.457 323.861 310.778 326.718C301.943 329.626 293.172 332.513 285 326.5C273.877 318.316 279.049 305.342 284.337 292.079C289.517 279.087 294.807 265.817 285 256.5C266.172 238.613 240.586 242.838 218.5 256.5C200.303 267.757 208.225 287.613 216.51 308.381C224.48 328.36 232.787 349.181 218.5 364C188.278 395.347 126.958 402.7 107 364C96.7079 344.042 93.5081 324.45 107 306.5C116.218 294.236 129.994 299.494 144.373 304.982C157.995 310.181 172.157 315.586 183.5 306.5C212.608 283.183 217.237 226.897 183.5 211C167.603 203.509 150.995 198.642 138.5 211C132.171 217.259 135.301 225.478 138.44 233.719C141.567 241.929 144.702 250.162 138.5 256.5C125.8 269.479 107.65 265.711 92 256.5C78.6948 248.668 85.2719 232.964 91.8783 217.189C98.4734 201.441 105.098 185.624 92 177.5C83.7559 172.387 75.6019 174.799 67.3729 177.235C59.3702 179.603 51.2965 181.992 43 177.5C11.9207 160.673 11.9207 103.827 43 87C51.2444 82.5362 59.3424 84.9823 67.3348 87.3965C75.6556 89.9099 83.862 92.3887 92 87C116.095 71.0451 110.113 35.5183 92 13C69.4817 -14.9958 0 13 0 13V567H1920Z" fill="#133881"/>
</svg>
